<svg width="412" height="412" viewBox="0 0 412 412" fill="none" xmlns="http://www.w3.org/2000/svg">
<path d="M411.845 205.923C411.845 319.651 319.651 411.846 205.923 411.846C92.1948 411.846 0 319.651 0 205.923C0 92.1947 92.1948 7.33761e-05 205.923 7.33761e-05C319.651 7.33761e-05 411.845 92.1947 411.845 205.923Z" fill="white"/>
<path d="M411.845 205.923C411.845 319.651 319.651 411.846 205.923 411.846C92.1948 411.846 0 319.651 0 205.923C0 92.1947 92.1948 7.33761e-05 205.923 7.33761e-05C319.651 7.33761e-05 411.845 92.1947 411.845 205.923Z" fill="#E71F2E"/>
<path d="M77.9242 159.681L88.3255 127.429L60.9922 107.369L94.8722 107.305L105.451 75.1201L115.98 107.305L149.875 107.435L122.495 127.429L132.848 159.681L105.416 139.748L77.9242 159.681" fill="#ECCF18"/>
<path d="M172.418 177.095L183.885 181.74L191.834 172.259L190.979 184.579L202.429 189.223L190.447 192.254L189.561 204.446L182.998 194.06L171.049 196.963L178.934 187.546L172.418 177.095Z" fill="#ECCF18"/>
<path d="M234.372 115.109L222.215 112.98L216.392 123.883L214.684 111.691L202.51 109.433L213.587 104.08L211.91 91.8255L220.507 100.661L231.583 95.3068L225.795 106.209L234.372 115.109" fill="#ECCF18"/>
<path d="M208.588 170.324L212.346 158.583L202.396 151.295H214.747L218.554 139.556L222.392 151.295H234.744L224.795 158.583L228.535 170.324L218.554 163.099L208.588 170.324" fill="#ECCF18"/>
<path d="M173.047 63.1855L184.223 68.4094L192.656 59.3801L191.189 71.6348L202.332 76.9241L190.252 79.2468L188.721 91.5015L182.707 80.7308L170.613 82.9881L178.999 73.9575L173.047 63.1855" fill="#ECCF18"/>
</svg>
