<svg width="512" height="512" viewBox="0 0 512 512" fill="none" xmlns="http://www.w3.org/2000/svg">
<path d="M256 0C114.836 0 0 114.836 0 256C0 397.164 114.836 512 256 512C397.164 512 512 397.164 512 256C512 114.836 397.164 0 256 0ZM377.75 388.414C373.59 392.574 368.129 394.668 362.668 394.668C357.207 394.668 351.742 392.574 347.586 388.414L240.918 281.75C236.906 277.762 234.668 272.34 234.668 266.668V128C234.668 116.203 244.223 106.668 256 106.668C267.777 106.668 277.332 116.203 277.332 128V257.836L377.75 358.25C386.09 366.594 386.09 380.074 377.75 388.414V388.414Z" fill="#ABABAB"/>
</svg>
