<?xml version="1.0" encoding="iso-8859-1"?>
<!-- Generator: Adobe Illustrator 19.0.0, SVG Export Plug-In . SVG Version: 6.00 Build 0)  -->
<svg version="1.1" id="Capa_1" xmlns="http://www.w3.org/2000/svg" xmlns:xlink="http://www.w3.org/1999/xlink" x="0px" y="0px"
	 viewBox="0 0 512 512" style="enable-background:new 0 0 512 512;" xml:space="preserve">
<g>
	<g>
		<path d="M256,0C148.48,0,61,87.48,61,195c0,42.55,13.44,82.98,38.9,116.9l144.08,194.051c0.36,0.47,0.91,0.65,1.31,1.07
			c7.2,7.71,17.59,5.77,22.72-1.07C309.5,450.591,385.55,347.2,414.79,308.2c0,0,0.01-0.03,0.02-0.05l0.18-0.24
			C438.55,274.81,451,235.77,451,195C451,87.48,363.52,0,256,0z M256,300.2c-57.89,0-105.2-47.31-105.2-105.2S198.11,89.8,256,89.8
			S361.2,137.11,361.2,195S313.89,300.2,256,300.2z"/>
	</g>
</g>
<g>
</g>
<g>
</g>
<g>
</g>
<g>
</g>
<g>
</g>
<g>
</g>
<g>
</g>
<g>
</g>
<g>
</g>
<g>
</g>
<g>
</g>
<g>
</g>
<g>
</g>
<g>
</g>
<g>
</g>
</svg>
