<svg id="Capa_1" enable-background="new 0 0 512 512" height="512" viewBox="0 0 512 512" width="512" xmlns="http://www.w3.org/2000/svg"><g><path d="m150.988 332v80c0 8.284 6.716 15 15 15h200c8.284 0 15-6.716 15-15v-80c0-8.284-6.716-15-15-15h-200c-8.285 0-15 6.716-15 15zm30 15h170v50h-170z"/><path d="m474.957 202.978c-1.303-.972-2.734-1.709-4.232-2.208.173-1.913.262-3.838.262-5.77 0-12.582-3.688-24.73-10.35-35.073 18.441-11.575 30.35-32.016 30.35-54.927 0-35.841-29.159-65-65-65-3.327 0-6.633.26-9.904.776-9.627-24.123-33.062-40.776-60.095-40.776-26.685 0-50.038 16.174-59.912 40h-.088c-34.56 0-62.897 27.115-64.879 61.186-14.769 2.365-28.793 8.212-40.894 17.014l-29.266-50.69c-20.677-35.813-66.637-48.128-102.452-27.452-35.814 20.678-48.129 66.637-27.451 102.452l33.249 57.59c-2.597.295-5.117 1.264-7.283 2.881-4.247 3.171-6.505 8.348-5.94 13.617 4.997 46.64 10.078 94.571 14.992 140.925 4.047 38.175 8.094 76.349 12.141 114.258 2.448 22.928 21.684 40.219 44.746 40.219h286.059c23.069 0 42.307-17.299 44.748-40.239l27.146-255.174c.56-5.269-1.7-10.441-5.947-13.609zm-178.969-132.978c2.387 0 4.879.297 7.619.907 3.993.888 8.179.107 11.585-2.163 3.405-2.271 5.734-5.835 6.447-9.865 2.96-16.733 17.406-28.879 34.349-28.879 17.727 0 32.575 13.399 34.539 31.168.528 4.775 3.311 9.009 7.485 11.387 4.175 2.378 9.237 2.612 13.612.63 4.666-2.113 9.498-3.185 14.364-3.185 19.299 0 35 15.701 35 35 0 16.963-12.166 31.41-28.927 34.353-5.973 1.049-10.727 5.591-12.047 11.51s1.054 12.05 6.016 15.537c9.366 6.582 14.958 17.274 14.958 28.601 0 5.179-1.191 10.277-3.449 14.975-34.385 12.445-69.753 21.047-105.804 25.758 2.117-4.443 3.879-9.049 5.286-13.77 38.486-56.531 43.706-113.274 43.912-115.692.702-8.254-5.421-15.515-13.675-16.217-8.253-.688-15.515 5.421-16.217 13.676-.031.363-2.383 25.901-15.857 58.564-11.668-31.722-39.805-55.547-73.99-61.071 1.891-17.53 16.771-31.224 34.794-31.224zm-50 60c35.841 0 65 29.159 65 65 0 16.683-6.19 32.207-17.502 44.253-9.132.492-18.298.747-27.498.747-1.825 0-3.648-.014-5.471-.033l-55.177-95.57c11.479-9.239 25.818-14.397 40.648-14.397zm-193.457-36.637c3.111-11.61 10.557-21.314 20.966-27.325 21.488-12.405 49.064-5.017 61.471 16.472l12.865 22.283-42.735 2.565c-8.27.496-14.571 7.602-14.075 15.871.478 7.964 7.085 14.102 14.959 14.102.303 0 .607-.009.913-.027l57.708-3.463 13.23 22.915-42.735 2.565c-8.269.496-14.57 7.603-14.074 15.871.478 7.964 7.086 14.102 14.959 14.102.303 0 .607-.009.913-.027l57.707-3.464 30.334 52.541c-40.131-3.241-79.514-11.242-117.743-23.938l-50.167-86.896c-6.011-10.409-7.607-22.536-4.496-34.147zm371.395 375.224c-.813 7.646-7.226 13.413-14.916 13.413h-286.059c-7.688 0-14.1-5.763-14.916-13.403-4.046-37.902-8.092-76.069-12.138-114.236-4.057-38.27-8.228-77.616-12.372-116.426 58.563 21.288 119.826 32.065 182.463 32.065 62.645 0 123.907-10.777 182.476-32.071z"/></g></svg>