<svg id="Capa_1" enable-background="new 0 0 512 512" height="512" viewBox="0 0 512 512" width="512" xmlns="http://www.w3.org/2000/svg"><g><path d="m297.984 284.004c-6.301 0-12.156-4.001-14.237-10.294l-50.912-153.945c-.173-.522-.317-1.055-.431-1.593-.939-4.422-1.416-8.854-1.416-13.172 0-35.841 29.159-65 65-65h.088c9.874-23.826 33.227-40 59.912-40 27.034 0 50.469 16.653 60.096 40.776 3.271-.516 6.576-.776 9.904-.776 35.841 0 65 29.159 65 65 0 22.911-11.909 43.352-30.35 54.927 6.662 10.343 10.35 22.491 10.35 35.073 0 12.492-3.633 24.695-10.506 35.29-1.903 2.934-4.771 5.11-8.107 6.153l-149.91 46.873c-1.49.466-2.998.688-4.481.688z" fill="#d2eb5a"/><path d="m490.988 105c0-35.841-29.159-65-65-65-3.327 0-6.633.26-9.904.776-9.628-24.123-33.063-40.776-60.096-40.776-26.685 0-50.038 16.174-59.912 40-.029 0-.059 0-.088 0-10.818 0-21.018 2.671-30 7.366v172.646l17.759 53.698c2.081 6.293 7.936 10.294 14.237 10.294 1.483 0 2.992-.222 4.48-.688l149.91-46.873c3.337-1.043 6.205-3.22 8.107-6.153 6.873-10.595 10.506-22.798 10.506-35.29 0-12.582-3.688-24.73-10.35-35.073 18.442-11.575 30.351-32.016 30.351-54.927z" fill="#8ee26b"/><path d="m323.208 230.562c-2.958 0-5.945-.872-8.557-2.69-6.799-4.732-8.474-14.081-3.741-20.88 35.305-50.718 40.087-102.743 40.131-103.263.703-8.255 7.964-14.364 16.217-13.676 8.254.702 14.377 7.963 13.675 16.217-.208 2.449-5.557 60.622-45.402 117.861-2.914 4.188-7.581 6.431-12.323 6.431z" fill="#00b9a0"/><path d="m245.988 290c-52.383 0-95-42.617-95-95s42.617-95 95-95 95 42.617 95 95-42.617 95-95 95z" fill="#ff7d47"/><path d="m340.988 195c0-45.523-32.189-83.665-75-92.875v185.75c42.811-9.21 75-47.352 75-92.875z" fill="#ff405c"/><path d="m264.983 248.891c-1.305-3.062-2.625-5.738-4.034-8.176l-32.865-56.923-16.097-8.601-.674-20.447-13.23-22.914-16.097-8.601-.674-20.447-20.363-35.272c-20.677-35.813-66.637-48.128-102.452-27.452-35.814 20.678-48.129 66.638-27.451 102.452l90 155.885c2.734 4.735 7.741 7.502 12.991 7.502 1.469 0 2.958-.217 4.419-.668l117.146-36.124c4.06-1.252 7.398-4.167 9.187-8.021s1.859-8.284.194-12.193z" fill="#ffd845"/><path d="m91.024 123.229c.496 8.27 7.602 14.571 15.872 14.074l91.188-5.474-16.771-29.048-76.215 4.575c-8.269.498-14.57 7.603-14.074 15.873z" fill="#ffb454"/><path d="m135.099 159.319c-8.269.496-14.571 7.602-14.074 15.872.496 8.269 7.602 14.571 15.872 14.074l91.188-5.474-16.771-29.048z" fill="#ffb454"/><path d="m409.009 512h-286.058c-23.062 0-42.298-17.291-44.746-40.22-4.047-37.909-8.094-76.083-12.141-114.258-4.914-46.354-9.995-94.285-14.992-140.925-.565-5.27 1.693-10.446 5.94-13.617s9.852-3.865 14.744-1.826c61.864 25.777 127.212 38.846 194.232 38.846 67.019 0 132.367-13.069 194.231-38.846 4.89-2.039 10.492-1.346 14.739 1.823 4.247 3.168 6.506 8.341 5.946 13.609l-27.146 255.174c-2.441 22.941-21.679 40.24-44.749 40.24z" fill="#b48e6e"/><path d="m474.957 202.978c-4.247-3.169-9.849-3.862-14.739-1.823-61.863 25.776-127.212 38.845-194.23 38.845v272h143.022c23.069 0 42.307-17.299 44.748-40.239l27.146-255.174c.56-5.269-1.7-10.441-5.947-13.609z" fill="#9d5e4a"/><path d="m365.988 427h-200c-8.284 0-15-6.716-15-15v-80c0-8.284 6.716-15 15-15h200c8.284 0 15 6.716 15 15v80c0 8.284-6.716 15-15 15z" fill="#fff5f5"/><path d="m365.988 317h-100v110h100c8.284 0 15-6.716 15-15v-80c0-8.284-6.716-15-15-15z" fill="#dfdef5"/></g></svg>