<svg width="36" height="36" viewBox="0 0 36 36" fill="none" xmlns="http://www.w3.org/2000/svg">
<g clip-path="url(#clip0)">
<path d="M26.1795 36C25.9275 36 25.6695 35.9685 25.4145 35.901L2.22002 29.6895C0.630023 29.2515 -0.317977 27.6045 0.0990228 26.0145L3.02552 15.1065C3.13352 14.706 3.54452 14.4735 3.94352 14.5755C4.34402 14.682 4.58102 15.0945 4.47452 15.4935L1.54952 26.3985C1.34102 27.1935 1.81802 28.0215 2.61452 28.242L25.8 34.4505C26.5965 34.6605 27.4185 34.1865 27.6255 33.3945L28.797 29.0535C28.905 28.653 29.316 28.4145 29.7165 28.524C30.117 28.632 30.3525 29.0445 30.246 29.4435L29.076 33.7785C28.7235 35.1135 27.5085 36 26.1795 36Z" fill="#C4C4C4"/>
<path d="M33 27H9C7.3455 27 6 25.6545 6 24V6C6 4.3455 7.3455 3 9 3H33C34.6545 3 36 4.3455 36 6V24C36 25.6545 34.6545 27 33 27ZM9 4.5C8.1735 4.5 7.5 5.1735 7.5 6V24C7.5 24.8265 8.1735 25.5 9 25.5H33C33.8265 25.5 34.5 24.8265 34.5 24V6C34.5 5.1735 33.8265 4.5 33 4.5H9Z" fill="#C4C4C4"/>
<path d="M13.5 13.5C11.8455 13.5 10.5 12.1545 10.5 10.5C10.5 8.8455 11.8455 7.5 13.5 7.5C15.1545 7.5 16.5 8.8455 16.5 10.5C16.5 12.1545 15.1545 13.5 13.5 13.5ZM13.5 9C12.6735 9 12 9.6735 12 10.5C12 11.3265 12.6735 12 13.5 12C14.3265 12 15 11.3265 15 10.5C15 9.6735 14.3265 9 13.5 9Z" fill="#C4C4C4"/>
<path d="M6.85499 25.395C6.66299 25.395 6.47099 25.3215 6.32399 25.176C6.03149 24.8835 6.03149 24.408 6.32399 24.1155L13.4085 17.031C14.2575 16.182 15.741 16.182 16.59 17.031L18.699 19.14L24.537 12.135C24.9615 11.6265 25.5855 11.331 26.25 11.325H26.2665C26.9235 11.325 27.546 11.61 27.975 12.1095L35.82 21.2625C36.09 21.576 36.054 22.05 35.739 22.32C35.4255 22.59 34.953 22.5555 34.6815 22.239L26.8365 13.086C26.691 12.918 26.49 12.825 26.2665 12.825C26.1105 12.8115 25.836 12.9195 25.6905 13.095L19.326 20.7315C19.191 20.8935 18.9945 20.991 18.783 21C18.57 21.015 18.3675 20.931 18.219 20.781L15.5295 18.0915C15.246 17.8095 14.7525 17.8095 14.469 18.0915L7.38449 25.176C7.23899 25.3215 7.04699 25.395 6.85499 25.395Z" fill="#C4C4C4"/>
</g>
<defs>
<clipPath id="clip0">
<rect width="36" height="36" fill="white"/>
</clipPath>
</defs>
</svg>
