<svg width="13" height="12" viewBox="0 0 13 12" fill="none" xmlns="http://www.w3.org/2000/svg">
<path d="M6.49997 0C4.11061 0 2.16663 1.79445 2.16663 4.00001C2.16663 4.66212 2.34596 5.3186 2.68688 5.90088L6.263 11.8711C6.31061 11.9507 6.40133 12 6.49997 12C6.59861 12 6.68933 11.9507 6.73694 11.8711L10.3144 5.89891C10.654 5.3186 10.8333 4.66209 10.8333 3.99998C10.8333 1.79445 8.88933 0 6.49997 0ZM6.49997 6C5.30529 6 4.33331 5.10279 4.33331 4.00001C4.33331 2.89723 5.30529 2.00002 6.49997 2.00002C7.69465 2.00002 8.66663 2.89723 8.66663 4.00001C8.66663 5.10279 7.69465 6 6.49997 6Z" fill="white"/>
</svg>
