<svg width="18" height="18" viewBox="0 0 18 18" fill="none" xmlns="http://www.w3.org/2000/svg">
<path d="M9.73766 11.6538C10.8178 11.6535 11.609 10.6082 11.379 9.59082C11.3433 9.40781 11.21 9.26066 11.0314 9.20684C10.4639 9.02626 9.7951 9.14496 9.33401 9.5968V8.80295C9.33401 8.65741 9.21602 8.53942 9.07049 8.53942C8.92495 8.53942 8.80696 8.65741 8.80696 8.80295V9.5968C8.52169 9.3256 8.14672 9.14833 7.7511 9.12839C7.48156 9.1147 7.25346 9.16353 7.10954 9.20687C6.93097 9.2607 6.79775 9.40781 6.76194 9.59082C6.7237 9.75408 6.70449 10.1193 6.77555 10.3777C6.87198 10.713 7.35987 10.5909 7.28677 10.2496C7.23879 10.0696 7.25135 9.8256 7.27629 9.70722C8.13849 9.43705 8.96776 10.1901 8.78423 11.0725C8.68348 11.1015 8.52303 11.1345 8.33605 11.1251C8.19499 11.118 8.05434 11.0798 7.91799 11.0118C7.78772 10.9467 7.62948 10.9997 7.56451 11.1299C7.4995 11.2601 7.55237 11.4184 7.6826 11.4834C7.88443 11.5841 8.09532 11.6407 8.30946 11.6515C8.47744 11.6616 8.67493 11.6405 8.80696 11.6104V12.4084C8.52169 12.1372 8.14672 11.9599 7.75106 11.94C7.48152 11.9263 7.25342 11.9751 7.1095 12.0184C6.93094 12.0723 6.79771 12.2194 6.7619 12.4024C6.50024 13.6023 7.58361 14.707 8.80692 14.4219V15.7488C8.80692 15.8944 8.92492 16.0124 9.07045 16.0124C9.21599 16.0124 9.33398 15.8944 9.33398 15.7488V14.422C10.2519 14.6571 11.255 13.992 11.3936 13.0486C11.4339 12.7817 11.4079 12.5499 11.379 12.4025C11.3432 12.2195 11.21 12.0723 11.0314 12.0185C10.4637 11.8379 9.79521 11.9565 9.33398 12.4084V11.6105C9.44616 11.6346 9.58322 11.6538 9.73766 11.6538ZM9.34882 10.6213C9.42534 10.1142 9.90426 9.68059 10.4165 9.65474C10.6019 9.64548 10.7602 9.67707 10.8646 9.70715C11.0482 10.5919 10.2168 11.3424 9.35677 11.0725C9.33795 10.9693 9.32092 10.8064 9.34882 10.6213ZM8.78423 13.884C7.92358 14.1543 7.09276 13.4026 7.27629 12.5187C8.13845 12.2486 8.9678 13.0015 8.78423 13.884ZM9.34882 13.4329C9.42534 12.9257 9.90426 12.4921 10.4165 12.4663C10.6019 12.4571 10.7602 12.4886 10.8646 12.5187C11.0482 13.4034 10.2167 14.154 9.35677 13.884C9.33795 13.7809 9.32092 13.6179 9.34882 13.4329Z" fill="black"/>
<path d="M16.9065 16.7729C16.8341 16.2273 16.6575 15.7421 16.3816 15.3309C16.2907 15.1954 16.2569 15.0233 16.2889 14.8586C16.2984 14.7936 16.3034 14.728 16.3102 14.6626C16.324 14.5177 16.2176 14.3891 16.0727 14.3753C15.9279 14.3616 15.7992 14.4679 15.7855 14.6128C15.7806 14.6651 15.7752 14.7172 15.7694 14.7692C15.7147 15.0663 15.7781 15.3774 15.944 15.6246C16.1744 15.9679 16.3224 16.3776 16.384 16.8422C16.4051 17.0007 16.3569 17.1608 16.2521 17.2815C16.146 17.4035 15.9988 17.4714 15.8374 17.4727C15.3715 17.4767 14.6694 17.372 13.974 16.853C13.778 16.7066 13.5325 16.6261 13.2829 16.6261H4.71536C4.46576 16.6261 4.22032 16.7067 4.02423 16.853C3.32885 17.372 2.62717 17.4772 2.16084 17.4727C1.83575 17.4786 1.56424 17.163 1.61426 16.8422C1.67586 16.3775 1.82393 15.9679 2.05431 15.6245C2.22018 15.3774 2.28354 15.0662 2.22891 14.7691C1.91015 11.919 2.92119 8.69678 3.18275 7.92558H14.8156C15.0368 8.57646 15.7936 10.9753 15.83 13.4206C15.8321 13.5662 15.9514 13.6814 16.0973 13.6802C16.2429 13.6781 16.3591 13.5583 16.3569 13.4128C16.3215 11.0317 15.646 8.75334 15.3671 7.9101C15.8233 7.82856 16.1708 7.42921 16.1708 6.94993V6.22911C16.1708 5.69112 15.7331 5.25346 15.1951 5.25346H14.8955C13.8112 3.48997 12.182 1.58186 9.67517 0.174245C9.25187 -0.0580773 8.74641 -0.0580773 8.32314 0.17428C5.8197 1.57905 4.18197 3.49317 3.10268 5.25349H2.80313C2.26514 5.25349 1.82744 5.69115 1.82744 6.22915V6.94996C1.82744 7.42917 2.17484 7.82849 2.63093 7.9101C2.29476 8.92249 1.37993 12.0335 1.70938 14.8586C1.74136 15.0233 1.70752 15.1955 1.61665 15.3309C1.34071 15.7421 1.16411 16.2273 1.09175 16.7729C1.05087 17.0811 1.14441 17.3925 1.34838 17.6272C1.55787 17.8689 1.86526 18.005 2.18462 17.9999C2.73161 17.9999 3.54042 17.8717 4.33947 17.2754C4.44511 17.1965 4.57858 17.1531 4.71536 17.1531H13.2829C13.4197 17.1531 13.5532 17.1965 13.6588 17.2754C14.4717 17.882 15.296 18.0052 15.8417 17.9998C16.4781 18.0051 17.0014 17.4038 16.9065 16.7729ZM8.57668 0.636286C8.84516 0.488956 9.15308 0.488956 9.42153 0.636286C12.0784 2.09442 13.7032 4.35418 14.2762 5.25346H3.72155C4.29332 4.35478 5.91524 2.09695 8.57668 0.636286ZM2.35453 6.94996V6.22915C2.35453 5.98177 2.55579 5.78054 2.80313 5.78054H15.1951C15.4425 5.78054 15.6437 5.98177 15.6437 6.22915V6.94996C15.6437 7.19731 15.4425 7.39857 15.1951 7.39857H2.80313C2.55576 7.39857 2.35453 7.19731 2.35453 6.94996Z" fill="black"/>
<path d="M9.53978 1.65697C9.34574 1.65697 9.18842 1.81429 9.18842 2.00833C9.20692 2.47442 9.87272 2.47428 9.89115 2.00833C9.89115 1.81429 9.73383 1.65697 9.53978 1.65697Z" fill="black"/>
<path d="M10.637 2.72722C10.443 2.72722 10.2856 2.88454 10.2856 3.07859C10.3041 3.54467 10.9699 3.54453 10.9884 3.07859C10.9884 2.88454 10.8311 2.72722 10.637 2.72722Z" fill="black"/>
</svg>
