<svg width="8" height="8" viewBox="0 0 8 8" fill="none" xmlns="http://www.w3.org/2000/svg">
<path d="M3.94299 3.85362C4.47241 3.85362 4.93085 3.66374 5.30542 3.28911C5.67999 2.91454 5.86987 2.45623 5.86987 1.92675C5.86987 1.39746 5.67999 0.939083 5.30536 0.56439C4.93072 0.18988 4.47235 0 3.94299 0C3.41351 0 2.9552 0.18988 2.58063 0.564451C2.20605 0.939022 2.01611 1.39739 2.01611 1.92675C2.01611 2.45623 2.20605 2.9146 2.58069 3.28917C2.95532 3.66368 3.4137 3.85362 3.94299 3.85362V3.85362Z" fill="#1982E3"/>
<path d="M7.31451 6.15155C7.30371 5.99567 7.28186 5.82562 7.24969 5.64606C7.21722 5.46515 7.17542 5.29413 7.12537 5.13782C7.07367 4.97626 7.00336 4.81672 6.91644 4.66382C6.82623 4.50513 6.72028 4.36695 6.60138 4.25324C6.47705 4.13428 6.32483 4.03864 6.1488 3.96888C5.97339 3.89948 5.77899 3.86433 5.57104 3.86433C5.48938 3.86433 5.4104 3.89783 5.25787 3.99714C5.164 4.05836 5.0542 4.12916 4.93164 4.20746C4.82684 4.27424 4.68488 4.3368 4.50952 4.39344C4.33844 4.4488 4.16473 4.47687 3.99329 4.47687C3.82184 4.47687 3.64819 4.4488 3.47693 4.39344C3.30176 4.33686 3.15979 4.2743 3.05511 4.20753C2.93372 4.12995 2.82385 4.05915 2.72858 3.99708C2.57623 3.89777 2.49719 3.86427 2.41553 3.86427C2.20752 3.86427 2.01318 3.89948 1.83783 3.96894C1.66193 4.03858 1.50964 4.13422 1.38519 4.2533C1.26636 4.36707 1.16034 4.50519 1.07025 4.66382C0.983398 4.81672 0.913086 4.9762 0.861328 5.13788C0.81134 5.29419 0.769531 5.46515 0.737061 5.64606C0.704895 5.82538 0.683044 5.99548 0.672241 6.15173C0.661621 6.30481 0.65625 6.46368 0.65625 6.62414C0.65625 7.04174 0.789001 7.37982 1.05078 7.62915C1.30933 7.87518 1.65143 7.99999 2.06744 7.99999H5.91949C6.33551 7.99999 6.67749 7.87524 6.9361 7.62915C7.19794 7.38 7.33069 7.04187 7.33069 6.62408C7.33063 6.46289 7.3252 6.30389 7.31451 6.15155V6.15155Z" fill="#1982E3"/>
</svg>
