<?xml version="1.0" encoding="utf-8"?>
<!-- Generator: Adobe Illustrator 24.2.1, SVG Export Plug-In . SVG Version: 6.00 Build 0)  -->
<svg version="1.1" id="Layer_2" xmlns="http://www.w3.org/2000/svg" xmlns:xlink="http://www.w3.org/1999/xlink" x="0px" y="0px"
	 viewBox="0 0 480 480" style="enable-background:new 0 0 480 480;" xml:space="preserve">
<style type="text/css">
	.st0{fill:#FF0000;}
</style>
<g>
	<path class="st0" d="M129.6,389.6c-16.1,0-29.2,13.1-29.2,29.2s13.1,29.2,29.2,29.2c16.1,0,29.2-13.1,29.2-29.2
		S145.7,389.6,129.6,389.6z M129.6,427.6c-4.9,0-8.8-3.9-8.8-8.8s3.9-8.8,8.8-8.8c4.9,0,8.8,3.9,8.8,8.8S134.4,427.6,129.6,427.6z"
		/>
	<path class="st0" d="M367.2,245.7c0-22.6-21.1-31.3-31.2-35.5c-2.1-0.9-4.5-1.8-5.5-2.4l-18.2,32.1c3.1,1.8,6.5,3.2,9.8,4.6
		c2.3,1,6.3,2.6,8.4,3.9c0,23.2,0.4,6.5,0.7,29.9c0.5,30,1,74.6,1,119.2c-10.7,4.1-48.7,3.8-95.9,3.5c-16.9-0.1-36.1-0.2-57.8-0.2
		v37c21.6,0,40.7,0.1,57.6,0.2c13.4,0.1,25.3,0.2,35.9,0.2c53.4,0,74.5-2,87.4-15c6.2-6.3,9.4-14.4,9.4-24.1
		c0-45.7-0.5-90.9-1-121.4C367.5,252.5,367.2,269.6,367.2,245.7z"/>
	<path d="M267.6,224.5c23.6-1.4,51.8-36.5,71.3-65.7c12.5-18.8,41.6-55.9,40.6-89.2C378.9,46.7,363.7,32,341,32H108.8v19.2v175
		v137.1h39V226.3c4.7,0,9.4,0.1,14.2,0.1c11.6,0.1,23.3,0.2,35.4,0.2C221.7,226.7,237,226.2,267.6,224.5z M162.4,188
		c-4.8,0-9.7-0.1-14.6-0.1V70.4h192.9c0.5,7.9-5.1,20.3-27.2,56.1c-22,35.8-42.9,56.2-49.6,59.7C219.9,188.7,195.9,188.4,162.4,188z
		"/>
</g>
</svg>
