<svg width="6" height="6" viewBox="0 0 6 6" fill="none" xmlns="http://www.w3.org/2000/svg">
<path d="M2.99998 5.76761C4.52849 5.76761 5.7676 4.52851 5.7676 3C5.7676 1.47149 4.52849 0.232384 2.99998 0.232384C1.47147 0.232384 0.232361 1.47149 0.232361 3C0.232361 4.52851 1.47147 5.76761 2.99998 5.76761Z" fill="#00B574"/>
<path d="M3 6C1.34593 6 0 4.6543 0 3C0 1.34593 1.34593 0 3 0C4.6543 0 6 1.34593 6 3C6 4.6543 4.6543 6 3 6ZM3 0.464754C1.60201 0.464754 0.464754 1.60201 0.464754 3C0.464754 4.39799 1.60201 5.53525 3 5.53525C4.39799 5.53525 5.53525 4.39775 5.53525 3C5.53525 1.60201 4.39799 0.464754 3 0.464754Z" fill="#00B574"/>
<path d="M4.32688 3.64601C4.23625 3.73617 4.08986 3.73617 3.99923 3.64601L3.00233 2.64911L2.00542 3.64601C1.90805 3.72944 1.76119 3.71804 1.67777 3.62069C1.60318 3.53378 1.60318 3.40527 1.67777 3.31837L2.83966 2.15647C2.93029 2.06631 3.07668 2.06631 3.16731 2.15647L4.3292 3.31837C4.41868 3.40969 4.41774 3.55608 4.32688 3.64601Z" fill="white"/>
</svg>
