<svg id="Capa_1" enable-background="new 0 0 512 512" height="512" viewBox="0 0 512 512" width="512" xmlns="http://www.w3.org/2000/svg"><path clip-rule="evenodd" d="m502 277.129c0-95.557-148.22-52.47-174.666-151.168l-143.088 143.087c26.446 98.699 174.667 55.611 174.667 151.169z" fill="#f9f9f9" fill-rule="evenodd"/><path clip-rule="evenodd" d="m184.246 269.048 143.088-143.088c7.791-7.792 7.792-20.542 0-28.333-7.792-7.792-20.542-7.792-28.333 0l-283.157 283.156c-7.792 7.792-7.792 20.542 0 28.333 7.792 7.792 20.542 7.792 28.333 0z" fill="#ddb9a3" fill-rule="evenodd"/><path d="m483.75 218.563c-15.975-11.939-36.319-18.744-57.859-25.948-38.26-12.797-74.466-24.923-87.485-64.544 7.502-11.629 6.171-27.342-4.001-37.514-5.657-5.657-13.199-8.773-21.237-8.773s-15.581 3.116-21.238 8.772l-209.518 209.516c-3.905 3.905-3.905 10.237 0 14.143 3.906 3.905 10.238 3.905 14.143 0l209.517-209.516c1.879-1.88 4.399-2.915 7.096-2.915 2.695 0 5.216 1.035 7.095 2.915 3.913 3.912 3.913 10.279.001 14.191l-283.159 283.156c-1.88 1.879-4.399 2.915-7.095 2.915s-5.216-1.035-7.096-2.915c-1.88-1.879-2.915-4.399-2.915-7.095s1.035-5.216 2.915-7.096l10-10c3.905-3.905 3.905-10.237 0-14.143-3.906-3.905-10.236-3.905-14.143 0l-10 10c-5.656 5.657-8.771 13.2-8.771 21.238s3.115 15.581 8.772 21.238 13.2 8.772 21.238 8.772 15.581-3.116 21.237-8.772l128.896-128.896c18.543 41.336 59.612 55.101 96.315 67.377 44.921 15.024 72.453 26.229 72.453 65.546 0 4.044 2.437 7.691 6.173 9.239 1.237.513 2.537.762 3.825.762 2.603 0 5.16-1.017 7.073-2.929l143.089-143.087c1.875-1.875 2.929-4.419 2.929-7.071 0-25.202-9.24-44.359-28.25-58.566zm-117.462 180.135c-3.965-14.971-12.448-27.198-25.626-37.047-15.975-11.939-36.319-18.744-57.858-25.948-38.027-12.719-74.019-24.782-87.239-63.831l127.666-127.666c18.543 41.336 59.613 55.101 96.316 67.377 43.342 14.496 70.496 25.439 72.352 61.506z"/><path d="m57.659 348.966c2.719 0 5.429-1.103 7.402-3.273l.005-.005c3.715-4.086 3.411-10.408-.675-14.123-4.088-3.715-10.414-3.412-14.129.675-3.715 4.086-3.414 10.411.673 14.126 1.917 1.741 4.324 2.6 6.724 2.6z"/><path d="m382.809 325.57-.006.005c-4.242 3.536-4.813 9.839-1.277 14.082 1.978 2.373 4.821 3.597 7.688 3.597 2.258 0 4.53-.761 6.4-2.319 4.242-3.536 4.815-9.841 1.28-14.084-3.539-4.245-9.842-4.817-14.085-1.281z"/><path d="m452.845 255.474-38.888 38.888c-3.905 3.905-3.905 10.237 0 14.143 1.953 1.953 4.512 2.929 7.071 2.929s5.118-.976 7.071-2.929l38.888-38.888c3.905-3.905 3.905-10.237 0-14.143-3.906-3.905-10.236-3.905-14.142 0z"/></svg>