<?xml version="1.0" encoding="utf-8"?>
<!-- Generator: Adobe Illustrator 24.2.1, SVG Export Plug-In . SVG Version: 6.00 Build 0)  -->
<svg version="1.1" id="Layer_2" xmlns="http://www.w3.org/2000/svg" xmlns:xlink="http://www.w3.org/1999/xlink" x="0px" y="0px"
	 viewBox="0 0 480 480" style="enable-background:new 0 0 480 480;" xml:space="preserve">
<style type="text/css">
	.st0{fill:#C1272D;}
</style>
<g id="Layer_4">
	<path class="st0" d="M219.6,431c-15.2,0-30.5-0.2-45-0.9c-8.4-0.4-28.3-9.3-28.6-24.8c-0.5-28.4-0.1-52,0.3-76.9
		c0.3-18.4,0.7-37.5,0.7-60.3c0-9.1,3.5-16.7,10-22.1c22-18,76.5-7,120.3,1.8c12.9,2.6,28.1,5.7,37.2,6.5
		c-44.9-71.7-45.4-109.6-45.4-188c-5-0.8-14.8-1.5-29.7-1.4c-13.8,0.1-24,0.9-29.3,1.7c0,2.4,0.1,4.9,0.1,7.5
		c0.3,20,0.7,44.9-4.3,73.2c-0.8,4.4-4.9,7.3-9.3,6.5c-4.4-0.8-7.3-4.9-6.5-9.3c4.7-26.8,4.3-50.9,4-70.2c-0.1-4.7-0.1-9.1-0.1-13.3
		c0-9.1,11.1-10.2,19.9-11c7.6-0.7,17.9-1.1,28.1-1.1c9.7,0,18.6,0.4,25,1c6.7,0.7,18,1.9,18,11.1v2.2c0,81.8,0,115.7,46.7,188.4
		c4.1,6.5,2.2,11.1,0.7,13.4c-5.8,8.4-19.5,6.2-58.3-1.6c-36.2-7.3-90.8-18.3-107-5.1c-2.9,2.3-4.1,5.3-4.1,9.7
		c0,22.9-0.3,42-0.7,60.5c-0.4,24.8-0.9,48.2-0.3,76.3c0.1,3.7,9.7,8.9,13.4,9.2c29.2,1.4,62.1,0.8,91.1,0.4
		c13.3-0.2,25.9-0.4,37.2-0.4c3.3-0.8,12.3-6.9,14.4-10v-53c0-4.4,3.6-8,8-8s8,3.6,8,8v54c0,2.1,0,8.3-12.5,17.2
		c-3.2,2.3-11.5,7.8-17.5,7.8c-11.3,0-23.9,0.2-37.3,0.4C251.7,430.8,235.7,431,219.6,431z M318.3,403.7L318.3,403.7L318.3,403.7z
		 M318.5,260.8L318.5,260.8L318.5,260.8z"/>
	<g>
		<path class="st0" d="M214.8,146.2c0-4.8,2.2-8.9,6.7-12.2c4.3-3.2,9.5-4.8,15.5-4.8h8c4.8,0,9.5,1.1,14.1,3.4c1.9,1,3.4,2,4.5,3.1
			l-10.5,8c-1.7-2.4-4.1-3.8-7-4.1c-0.4-0.1-0.7-0.1-1.1-0.1h-8c-3.9,0-6.8,1.1-8.8,3.3c-0.9,1.1-1.3,2.2-1.3,3.4
			c0,2,2.2,3.8,6.5,5.2c1.4,0.5,3.6,1.1,6.9,2c7.8,2,13.3,4,16.4,5.9c5.1,3.1,7.7,7.2,7.7,12.3c0,4.7-2.3,8.8-6.9,12.1
			c-4.5,3.2-9.9,4.8-16.1,4.8h-8c-5.1,0-9.9-1.1-14.7-3.4c-2-1-3.5-2-4.7-3.1l10.3-8c1.8,2.3,4.4,3.6,7.7,4.1c0.5,0.1,1,0.1,1.4,0.1
			h8c4.2,0,7.4-1.1,9.5-3.4c0.9-1,1.4-2.1,1.4-3.3c0-2.3-2.2-4.2-6.5-5.7c-0.6-0.3-4.4-1.3-11.3-3.2c-8-2.1-13.4-4.7-16.3-7.7
			C215.9,152.6,214.8,149.6,214.8,146.2z"/>
		<path class="st0" d="M243.2,279.4h-8c-6.5,0-12-2.3-16.5-6.9c-4.3-4.4-6.5-9.6-6.5-15.7v-15.8c0-6.4,2.3-11.7,6.9-16.2
			c4.5-4.3,9.9-6.4,16.1-6.4h8c6.5,0,12,2.3,16.5,6.9c4.3,4.4,6.5,9.6,6.5,15.7v15.8c0,6.4-2.3,11.7-6.9,16.2
			C254.8,277.3,249.4,279.4,243.2,279.4z M235.3,269.1h8c3.6,0,6.5-1.6,8.7-4.8c1.5-2.2,2.3-4.7,2.3-7.4v-15.8
			c0-4.1-1.5-7.4-4.5-9.8c-1.9-1.6-4.1-2.4-6.5-2.4h-8c-3.6,0-6.5,1.6-8.7,4.8c-1.6,2.2-2.3,4.7-2.3,7.5v15.8c0,4.1,1.5,7.3,4.4,9.8
			C230.7,268.3,232.9,269.1,235.3,269.1z"/>
		<path class="st0" d="M214.8,326.2c0-4.8,2.2-8.9,6.7-12.2c4.3-3.2,9.5-4.8,15.5-4.8h8c4.8,0,9.5,1.1,14.1,3.4c1.9,1,3.4,2,4.5,3.1
			l-10.5,8c-1.7-2.4-4.1-3.8-7-4.1c-0.4-0.1-0.7-0.1-1.1-0.1h-8c-3.9,0-6.8,1.1-8.8,3.3c-0.9,1.1-1.3,2.2-1.3,3.4
			c0,2,2.2,3.8,6.5,5.2c1.4,0.5,3.6,1.1,6.9,2c7.8,2,13.3,4,16.4,5.9c5.1,3.1,7.7,7.2,7.7,12.3c0,4.7-2.3,8.8-6.9,12.1
			c-4.5,3.2-9.9,4.8-16.1,4.8h-8c-5.1,0-9.9-1.1-14.7-3.4c-2-1-3.5-2-4.7-3.1l10.3-8c1.8,2.3,4.4,3.6,7.7,4.1c0.5,0.1,1,0.1,1.4,0.1
			h8c4.2,0,7.4-1.1,9.5-3.4c0.9-1,1.4-2.1,1.4-3.3c0-2.3-2.2-4.2-6.5-5.7c-0.6-0.3-4.4-1.3-11.3-3.2c-8-2.1-13.4-4.7-16.3-7.7
			C215.9,332.6,214.8,329.6,214.8,326.2z"/>
	</g>
</g>
</svg>
