<svg id="icon" height="512" viewBox="0 0 128 128" width="512" xmlns="http://www.w3.org/2000/svg"><path d="m87.58 67.063v22.037h-47.16v-22.037a23.58 23.58 0 1 1 47.16 0z" fill="#da364c"/><path d="m80.505 74.138v14.962h-40.085v-22.037a23.421 23.421 0 0 1 3.754-12.751 23.569 23.569 0 0 1 36.331 19.826z" fill="#ef5261"/><path d="m37.473 89.091h53.054a2.482 2.482 0 0 1 2.482 2.482v6.515a0 0 0 0 1 0 0h-58.018a0 0 0 0 1 0 0v-6.514a2.482 2.482 0 0 1 2.482-2.483z" fill="#575b6d"/><g fill="#ef5261"><rect height="10.423" rx="1.042" width="2.085" x="62.958" y="25.911"/><rect height="10.423" rx="1.042" transform="matrix(.866 -.5 .5 .866 -11.782 27.865)" width="2.085" x="45.063" y="30.706"/><rect height="10.423" rx="1.042" transform="matrix(.5 -.866 .866 .5 -25.947 53.093)" width="2.085" x="31.964" y="43.805"/><rect height="10.423" rx="1.042" transform="matrix(0 -1 1 0 -38.7 95.122)" width="2.085" x="27.169" y="61.7"/><rect height="10.423" rx="1.042" transform="matrix(0 1 -1 0 166.7 -32.878)" width="2.085" x="98.746" y="61.7"/><rect height="10.423" rx="1.042" transform="matrix(.5 .866 -.866 .5 89.947 -57.759)" width="2.085" x="93.952" y="43.805"/><rect height="10.423" rx="1.042" transform="matrix(.866 .5 -.5 .866 28.93 -36.135)" width="2.085" x="80.852" y="30.706"/></g></svg>